<?xml version="1.0" encoding="utf-8"?>
<!-- Uploaded to: SVG Repo, www.svgrepo.com, Generator: SVG Repo Mixer Tools -->
<svg fill="#009" width="800px" height="800px" viewBox="0 0 32 32" version="1.1" xmlns="http://www.w3.org/2000/svg">
<title>wireless-signal</title>
<path d="M8.623 2.424c-4.412 2.534-7.398 7.265-7.398 12.718 0 5.482 3.019 10.231 7.47 12.754-2.961-2.913-4.883-7.522-4.883-12.754-0-5.195 1.885-9.8 4.811-12.718zM23.455 2.571c2.844 2.924 4.664 7.461 4.664 12.572 0 5.125-1.844 9.65-4.701 12.572 4.286-2.566 7.179-7.214 7.179-12.572s-2.872-10.004-7.142-12.572zM7.966 15.143c0-4.141 1.734-7.765 4.3-9.657-3.833 1.536-6.56 5.275-6.56 9.657 0 4.393 2.746 8.129 6.596 9.657-2.58-1.888-4.337-5.503-4.337-9.657zM26.551 15.143c0.001-3.924-2.186-7.336-5.393-9.111 2.195 1.994 3.608 5.339 3.608 9.111 0 3.815-1.442 7.161-3.681 9.147 3.245-1.763 5.466-5.194 5.466-9.147zM11.169 15.144c0-2.781 1.151-5.183 2.8-6.361-2.661 0.895-4.563 3.398-4.563 6.361 0 2.989 1.934 5.522 4.632 6.395-1.688-1.158-2.869-3.574-2.869-6.395zM18.843 8.991c1.488 1.243 2.455 3.54 2.455 6.153 0 2.653-0.998 4.958-2.524 6.188 2.397-1.027 4.079-3.415 4.079-6.188-0-2.745-1.651-5.109-4.010-6.153zM16.349 13.187c-1.267 0-2.294 1.027-2.294 2.294 0 0.966 0.598 1.792 1.443 2.13v13.3h1.7v-13.3c0.846-0.338 1.444-1.164 1.444-2.13 0-1.266-1.027-2.293-2.294-2.294z"></path>
</svg>