<svg xmlns="http://www.w3.org/2000/svg" width="52" height="28.938" viewBox="0 0 52 28.938">
  <g id="Group_13876" data-name="Group 13876" transform="translate(-425 -671)">
    <rect id="Rectangle_20144" data-name="Rectangle 20144" width="52" height="22" transform="translate(425 671)" fill="#1d56d2"/>
    <path id="Path_21551" data-name="Path 21551" d="M12125,8436.331l6.938,6.938v-6.938Z" transform="translate(-11700 -7743.331)" fill="#1d16d2"/>
    <path id="Path_22431" data-name="Path 22431" d="M.938-10.01h1.33L6.832-3.052q.126.2.252.42t.238.42q.126.224.238.448h.028V-10.01H8.764V0H7.476L2.884-6.972q-.126-.182-.252-.4t-.238-.413q-.126-.224-.252-.434H2.114V0H.938ZM13.566.2a3.48,3.48,0,0,1-1.477-.3,3.217,3.217,0,0,1-1.1-.819A3.633,3.633,0,0,1,10.3-2.135a4.516,4.516,0,0,1-.238-1.477,4.4,4.4,0,0,1,.245-1.477,3.664,3.664,0,0,1,.7-1.211A3.351,3.351,0,0,1,12.1-7.119a3.206,3.206,0,0,1,1.4-.3,3.26,3.26,0,0,1,1.435.3,2.907,2.907,0,0,1,1.043.84,3.783,3.783,0,0,1,.637,1.288,5.9,5.9,0,0,1,.217,1.645h-5.6a3.611,3.611,0,0,0,.2,1.022,2.632,2.632,0,0,0,.462.826,2.056,2.056,0,0,0,.714.546,2.26,2.26,0,0,0,.966.2,2.141,2.141,0,0,0,1.3-.371,1.938,1.938,0,0,0,.7-1.113h1.106A2.982,2.982,0,0,1,15.61-.434,3.235,3.235,0,0,1,13.566.2Zm-.07-6.72a2.177,2.177,0,0,0-.9.175,1.884,1.884,0,0,0-.665.49,2.665,2.665,0,0,0-.448.742,3.434,3.434,0,0,0-.231.917H15.61a2.73,2.73,0,0,0-.595-1.708A1.911,1.911,0,0,0,13.5-6.524Zm3.584-.714H18.3l1.274,4.466q.07.238.126.5t.126.5q.056.266.14.546h.028q.07-.28.126-.546.056-.238.112-.5t.126-.483l1.218-4.494h1.19L23.94-2.744q.056.224.119.483t.119.5q.056.266.112.546h.028q.07-.28.14-.546.07-.238.133-.5t.133-.5l1.344-4.466h1.176L24.878,0H23.716l-1.2-4.382q-.07-.224-.126-.483t-.112-.5l-.112-.532h-.028q-.07.266-.126.532-.056.238-.112.5t-.126.483L20.552,0H19.376Z" transform="translate(437 687)" fill="#fff"/>
  </g>
</svg>