<svg xmlns="http://www.w3.org/2000/svg" width="47" height="28.938" viewBox="0 0 47 28.938">
  <g id="Group_13878" data-name="Group 13878" transform="translate(-425 -671)">
    <rect id="Rectangle_20144" data-name="Rectangle 20144" width="47" height="22" transform="translate(425 671)" fill="#1d56d2"/>
    <path id="Path_21551" data-name="Path 21551" d="M12125,8436.331l6.938,6.938v-6.938Z" transform="translate(-11700 -7743.331)" fill="#1d16d2"/>
    <path id="Path_22433" data-name="Path 22433" d="M.938-10.01H2.2v4.256H7.546V-10.01h1.26V0H7.546V-4.732H2.2V0H.938ZM13.608.2a3.4,3.4,0,0,1-1.456-.3,3.309,3.309,0,0,1-1.1-.819,3.664,3.664,0,0,1-.7-1.211,4.4,4.4,0,0,1-.245-1.477,4.4,4.4,0,0,1,.245-1.477,3.664,3.664,0,0,1,.7-1.211,3.309,3.309,0,0,1,1.1-.819,3.4,3.4,0,0,1,1.456-.3,3.4,3.4,0,0,1,1.456.3,3.309,3.309,0,0,1,1.1.819,3.57,3.57,0,0,1,.693,1.211,4.516,4.516,0,0,1,.238,1.477,4.516,4.516,0,0,1-.238,1.477,3.57,3.57,0,0,1-.693,1.211,3.309,3.309,0,0,1-1.1.819A3.4,3.4,0,0,1,13.608.2Zm0-.952A2.168,2.168,0,0,0,14.616-.98a2.138,2.138,0,0,0,.728-.609,2.673,2.673,0,0,0,.441-.9,4.088,4.088,0,0,0,.147-1.12,4.088,4.088,0,0,0-.147-1.12,2.753,2.753,0,0,0-.441-.91,2.107,2.107,0,0,0-.728-.616,2.168,2.168,0,0,0-1.008-.224,2.211,2.211,0,0,0-1.015.224,2.088,2.088,0,0,0-.735.616,2.753,2.753,0,0,0-.441.91,4.088,4.088,0,0,0-.147,1.12,4.088,4.088,0,0,0,.147,1.12,2.673,2.673,0,0,0,.441.9,2.119,2.119,0,0,0,.735.609A2.211,2.211,0,0,0,13.608-.756Zm4.018-6.482h1.05V-9.52H19.81v2.282h1.4v.924h-1.4v4.7A.63.63,0,0,0,20-1.085a.862.862,0,0,0,.539.147,1.643,1.643,0,0,0,.336-.035q.168-.035.266-.063h.042v.98q-.2.042-.427.07a4.014,4.014,0,0,1-.483.028,1.951,1.951,0,0,1-1.148-.315,1.234,1.234,0,0,1-.448-1.085V-6.314h-1.05Z" transform="translate(437 687)" fill="#fff"/>
  </g>
</svg>
