<?xml version="1.0" encoding="utf-8"?>
<!-- Generator: Adobe Illustrator 28.0.0, SVG Export Plug-In . SVG Version: 6.00 Build 0)  -->
<svg version="1.0" id="Capa_1" xmlns="http://www.w3.org/2000/svg" xmlns:xlink="http://www.w3.org/1999/xlink" x="0px" y="0px"
	 viewBox="0 0 1080 1080" style="enable-background:new 0 0 1080 1080;" xml:space="preserve">
<style type="text/css">
	.st0{fill:#1EBC1F;}
</style>
<g>
	<g>
		<path class="st0" d="M609.61,408.99c0.82,107.12-85.5,203.33-205.01,203.19c-120.14-0.15-209.22-97.98-204.3-214.82
			c4.54-107.93,95.49-198.13,212.9-195.95C520.03,203.4,610.36,298.01,609.61,408.99z M404.65,543.5
			c75.78-0.16,138.82-60.68,138.71-133.15c-0.12-78.53-59.7-139.16-136.76-139.17c-78.69-0.01-138.45,59.08-138.56,137
			C267.94,481.78,330.41,543.66,404.65,543.5z"/>
		<path d="M785.24,613.77c0-113.88,0-225.68,0-340.31c-56.79,0-112.53,0-169.28,0c0-25.35,0-47.88,0-72.06
			c98.65,0,197.23,0,297.25,0c0,22.76,0,45.26,0,70.19c-16.56,0-33.92,0-53.62,0c0,115.22,0,228.08,0,342.18
			C834.15,613.77,811.06,613.77,785.24,613.77z"/>
		<path d="M124.54,199.93c23.77,0,46.3,0,71.08,0c0,137.6,0,274.69,0,413.45c-23.1,0-46.23,0-71.08,0
			C124.54,476.82,124.54,339.76,124.54,199.93z"/>
		<path d="M461.43,405.45c0.47,28.07-21.08,51.32-48.26,52.06c-29.49,0.8-52.94-20.93-53.36-49.46
			c-0.41-28.24,22.79-51.14,51.89-51.2C437.84,356.79,460.99,379.41,461.43,405.45z"/>
		<rect x="958.31" y="201.41" class="st0" width="70.76" height="70.76"/>
	</g>
	<path d="M303.94,682.23h31.11l-31.8,244.38h-47.01l-26.62-216.04l-26.62,216.04h-46.66l-31.8-244.38h31.11l25.23,220.53
		l27.65-220.53h41.82l28,220.53L303.94,682.23z"/>
	<path d="M435.71,926.61V682.23h33.18v244.38H435.71z"/>
	<polygon points="805.85,898.95 805.85,818.07 863.87,818.07 863.87,790.42 805.85,790.42 805.85,710.22 870.14,710.22 
		870.14,682.23 773.01,682.23 773.01,926.61 870.49,926.61 870.49,898.95 	"/>
	<path d="M645.49,790.42h-42.52c-4.84,0-6.22-1.73-6.22-6.57v-68.44c0-4.84,1.38-6.22,6.22-6.22h35.95c4.84,0,6.57,1.38,6.57,6.22
		v26.22v3.85h32.12v-3.45l0.03,0v-26.96c0-25.58-7.95-33.53-33.18-33.53H597.1c-25.23,0-32.84,7.95-32.84,33.53v68.44
		c0,24.89,7.6,33.18,32.84,33.18h42.52c5.19,0,6.57,1.38,6.57,6.22v70.51c0,4.84-1.38,6.22-6.57,6.22h-37.33
		c-4.84,0-6.22-1.38-6.22-6.22v-33.18h-32.84v3.46v2.79v26.94c0,25.93,7.95,34.22,33.18,34.22h49.08c25.23,0,33.18-8.29,33.18-34.22
		v-70.17C678.68,798.37,670.73,790.42,645.49,790.42z"/>
</g>
</svg>
